<svg xmlns="http://www.w3.org/2000/svg" viewBox="0 0 32 32" fill="none">
  <defs>
    <linearGradient id="paletteGradient" x1="0%" y1="0%" x2="100%" y2="100%">
      <stop offset="0%" style="stop-color:#8B5CF6;stop-opacity:1" />
      <stop offset="25%" style="stop-color:#EC4899;stop-opacity:1" />
      <stop offset="50%" style="stop-color:#F59E0B;stop-opacity:1" />
      <stop offset="75%" style="stop-color:#10B981;stop-opacity:1" />
      <stop offset="100%" style="stop-color:#3B82F6;stop-opacity:1" />
    </linearGradient>
  </defs>
  
  <!-- Background circle -->
  <circle cx="16" cy="16" r="14" fill="url(#paletteGradient)" opacity="0.1"/>
  
  <!-- Artist palette shape -->
  <path d="M8 14c0-4.4 3.6-8 8-8s8 3.6 8 8c0 1.1-.2 2.1-.6 3.1-.4 1-.9 1.9-1.6 2.6-.7.7-1.6 1.2-2.6 1.6-1 .4-2 .6-3.1.6-.8 0-1.5-.1-2.2-.3-.7-.2-1.3-.5-1.9-.9-.6-.4-1.1-.9-1.5-1.5-.4-.6-.7-1.2-.9-1.9-.2-.7-.3-1.4-.3-2.2 0-.4.1-.8.2-1.2.1-.4.3-.8.5-1.1.2-.3.5-.6.8-.8.3-.2.7-.3 1.1-.3.2 0 .4 0 .6.1.2.1.4.2.5.3.1.1.2.3.3.5.1.2.1.4.1.6 0 .3-.1.5-.2.7-.1.2-.3.4-.5.5-.2.1-.4.2-.7.2-.2 0-.4 0-.6-.1z" fill="url(#paletteGradient)"/>
  
  <!-- Paint brush -->
  <path d="M20 8l4 4-8 8-4-4 8-8z" fill="#6B7280" opacity="0.8"/>
  <path d="M22 6l2 2-1 1-2-2 1-1z" fill="#374151"/>
  
  <!-- Color dots on palette -->
  <circle cx="12" cy="12" r="1.5" fill="#EF4444"/>
  <circle cx="16" cy="10" r="1.5" fill="#3B82F6"/>
  <circle cx="20" cy="12" r="1.5" fill="#10B981"/>
  <circle cx="14" cy="16" r="1.5" fill="#F59E0B"/>
  <circle cx="18" cy="18" r="1.5" fill="#8B5CF6"/>
</svg>
